<svg xmlns="http://www.w3.org/2000/svg" width="15.223" height="20" viewBox="0 0 15.223 20">
  <g id="noun-forms-1236251" transform="translate(-155.567 -24.641)">
    <path id="Path_4332" data-name="Path 4332" d="M170.79,30.207a.439.439,0,0,0-.125-.307l-5.029-5.128a.438.438,0,0,0-.313-.132h-7.563a2.192,2.192,0,0,0-2.192,2.192V42.449a2.192,2.192,0,0,0,2.192,2.192H168.6a2.192,2.192,0,0,0,2.192-2.192Zm-5.064-4.1,3.79,3.867h-3.133a.658.658,0,0,1-.658-.658ZM168.6,43.763H157.759a1.315,1.315,0,0,1-1.315-1.315V26.826a1.315,1.315,0,0,1,1.315-1.315h7.09v3.81a1.534,1.534,0,0,0,1.535,1.535h3.53V42.448a1.315,1.315,0,0,1-1.315,1.315Z" fill="red"/>
    <path id="Path_4333" data-name="Path 4333" d="M303.424,270.26h-5.908a.438.438,0,1,0,0,.877h5.908a.438.438,0,0,0,0-.877Z" transform="translate(-135.97 -236.004)" fill="red"/>
    <path id="Path_4334" data-name="Path 4334" d="M224.657,264.658a.658.658,0,0,0,0,1.315h.011a.658.658,0,1,0-.011-1.315Z" transform="translate(-65.753 -230.621)" fill="red"/>
    <path id="Path_4335" data-name="Path 4335" d="M303.424,343.05h-5.908a.438.438,0,1,0,0,.877h5.908a.438.438,0,0,0,0-.877Z" transform="translate(-135.97 -305.944)" fill="red"/>
    <path id="Path_4336" data-name="Path 4336" d="M224.657,337.458a.658.658,0,1,0,0,1.315h.011a.658.658,0,1,0-.011-1.315Z" transform="translate(-65.753 -300.571)" fill="red"/>
    <path id="Path_4337" data-name="Path 4337" d="M303.424,415.86h-5.908a.438.438,0,1,0,0,.877h5.908a.438.438,0,0,0,0-.877Z" transform="translate(-135.97 -375.904)" fill="red"/>
    <path id="Path_4338" data-name="Path 4338" d="M224.657,410.257a.658.658,0,1,0,0,1.315h.011a.658.658,0,1,0-.011-1.315Z" transform="translate(-65.753 -370.52)" fill="red"/>
  </g>
</svg>
