<svg xmlns="http://www.w3.org/2000/svg" width="13.662" height="16.615" viewBox="0 0 13.662 16.615">
  <g id="noun-logout-1150920" transform="translate(-73.232 -27.997)">
    <path id="Path_22795" data-name="Path 22795" d="M144.093,28A1.3,1.3,0,0,0,142.8,29.29v14.03a1.3,1.3,0,0,0,1.292,1.292H150a.554.554,0,1,0,0-1.108h-5.907a.173.173,0,0,1-.185-.185V29.29a.173.173,0,0,1,.185-.185H150A.554.554,0,1,0,150,28Zm7.69,3.686a.554.554,0,0,0-.329.952l3.115,3.115h-7.892a.543.543,0,0,0-.058,0,.555.555,0,1,0,.058,1.108h7.892l-3.115,3.115a.555.555,0,1,0,.785.785L156.3,36.7a.554.554,0,0,0,0-.784l-4.061-4.061a.554.554,0,0,0-.4-.167.539.539,0,0,0-.058,0Z" transform="translate(-69.568)" fill="#fff"/>
  </g>
</svg>
