<svg xmlns="http://www.w3.org/2000/svg" width="22.604" height="18.596" viewBox="0 0 22.604 18.596">
  <g id="Group_7707" data-name="Group 7707" transform="translate(0)">
    <g id="noun-upload-1049548" transform="translate(0 13.06)">
      <path id="Path_4426" data-name="Path 4426" d="M99.961,78.337A1.971,1.971,0,0,1,98,76.383V73.565a.754.754,0,1,1,1.507,0v2.818a.435.435,0,0,0,.455.447H118.64a.435.435,0,0,0,.455-.447V73.565a.754.754,0,1,1,1.507,0v2.818a1.971,1.971,0,0,1-1.962,1.954Z" transform="translate(-97.998 -72.801)" fill="#fff"/>
    </g>
    <g id="noun-upload-1049548-2" data-name="noun-upload-1049548" transform="translate(6.024)">
      <path id="Path_4426-2" data-name="Path 4426" d="M122.273,88.644a.753.753,0,0,0-.526.22l-4.521,4.521a.755.755,0,1,0,1.067,1.067l3.233-3.234v10.234a.754.754,0,1,0,1.507,0V91.218l3.233,3.234a.755.755,0,0,0,1.067-1.067l-4.521-4.521a.753.753,0,0,0-.541-.22Z" transform="translate(-117.005 -88.644)" fill="#fff"/>
    </g>
  </g>
</svg>
