<svg xmlns="http://www.w3.org/2000/svg" width="15.247" height="18" viewBox="0 0 15.247 18">
  <g id="noun-task-2000380" transform="translate(-219.722 -126.151)">
    <path id="Path_4587" data-name="Path 4587" d="M232.594,167.574H220.686V152.568a.482.482,0,0,0-.964,0V168.09a.471.471,0,0,0,.482.482h12.39a.471.471,0,0,0,.482-.482A.5.5,0,0,0,232.594,167.574Z" transform="translate(0 -24.421)"/>
    <path id="Path_4588" data-name="Path 4588" d="M266.047,130.005v-.034a.391.391,0,0,0-.1-.206.034.034,0,0,0-.034-.034l-3.476-3.476c-.069-.034-.138-.1-.206-.1h-9.018a.471.471,0,0,0-.482.482v15.109a.471.471,0,0,0,.482.482H265.53a.471.471,0,0,0,.482-.482V130.074c.034-.034.034-.034.034-.069Zm-1.721-.447h-1.755V127.8l.86.895Zm.723,11.667H253.725V127.114h7.882v2.96a.471.471,0,0,0,.482.482h2.96Z" transform="translate(-31.078)"/>
    <path id="Path_4589" data-name="Path 4589" d="M297.54,233.318a.471.471,0,0,0,.482.482h7.09a.482.482,0,0,0,0-.964h-7.09A.47.47,0,0,0,297.54,233.318Z" transform="translate(-73.274 -100.457)"/>
    <path id="Path_4590" data-name="Path 4590" d="M305.108,284.71h-7.09a.482.482,0,0,0,0,.964h7.09a.471.471,0,0,0,.482-.482.452.452,0,0,0-.482-.482Z" transform="translate(-73.271 -149.302)"/>
    <path id="Path_4591" data-name="Path 4591" d="M305.108,336.59h-7.09a.482.482,0,0,0,0,.964h7.09a.482.482,0,0,0,0-.964Z" transform="translate(-73.271 -198.153)"/>
  </g>
</svg>
