<svg xmlns="http://www.w3.org/2000/svg" width="21.048" height="20.77" viewBox="0 0 21.048 20.77">
  <g id="noun-time-1989059" transform="translate(-71.578 -34.453)">
    <path id="Path_22789" data-name="Path 22789" d="M111.691,34.453a10.526,10.526,0,0,0-7.438,3.039,10.287,10.287,0,0,0,0,14.692,10.623,10.623,0,0,0,14.877,0,10.287,10.287,0,0,0,0-14.692A10.524,10.524,0,0,0,111.691,34.453Zm0,19.382a9,9,0,1,1,9.136-9A9.079,9.079,0,0,1,111.691,53.835Z" transform="translate(-29.589)"/>
    <path id="Path_22790" data-name="Path 22790" d="M337.363,132.368l-4.4-3.387v-6.692a.776.776,0,0,0-1.551,0v7.075a.762.762,0,0,0,.295.615l4.711,3.62a.762.762,0,0,0,.471.16.776.776,0,0,0,.476-1.391Z" transform="translate(-250.511 -83.863)"/>
  </g>
</svg>
