<svg xmlns="http://www.w3.org/2000/svg" width="16.319" height="20.77" viewBox="0 0 16.319 20.77">
  <g id="noun_contact_4226954" transform="translate(-5 -2)">
    <g id="_81_Contact_Call_Communication_Phone_" data-name="81 Contact, Call, Communication, Phone," transform="translate(5 2)">
      <path id="Path_308" data-name="Path 308" d="M19.094,22.77H7.225A2.225,2.225,0,0,1,5,20.545V4.225A2.225,2.225,0,0,1,7.225,2H19.094a2.225,2.225,0,0,1,2.225,2.225V20.545A2.225,2.225,0,0,1,19.094,22.77ZM7.225,3.484a.742.742,0,0,0-.742.742V20.545a.742.742,0,0,0,.742.742H19.094a.742.742,0,0,0,.742-.742V4.225a.742.742,0,0,0-.742-.742Zm9.643,1.484H9.451V6.451h7.418Zm-3.709,8.9A2.967,2.967,0,1,1,16.127,10.9,2.967,2.967,0,0,1,13.16,13.869Zm0-4.451A1.484,1.484,0,1,0,14.643,10.9,1.484,1.484,0,0,0,13.16,9.418Zm4.451,9.643a4.451,4.451,0,0,0-8.9,0V19.8h1.484v-.742a2.967,2.967,0,0,1,5.934,0V19.8H17.61Z" transform="translate(-5 -2)"/>
    </g>
  </g>
</svg>
