<svg xmlns="http://www.w3.org/2000/svg" width="14.944" height="21.07" viewBox="0 0 14.944 21.07">
  <g id="noun_Address_2955038" transform="translate(-18.881 -5.849)">
    <g id="Group_5497" data-name="Group 5497" transform="translate(19.031 5.999)">
      <path id="Path_298" data-name="Path 298" d="M26.345,6a7.286,7.286,0,0,0-7.071,5.379,8.023,8.023,0,0,0-.244,2.15c.012,2.458,1.332,4.581,2.822,6.642a32.122,32.122,0,0,1,4.064,6.31.473.473,0,0,0,.872,0,32.12,32.12,0,0,1,4.064-6.31c1.49-2.061,2.81-4.184,2.822-6.642a8.025,8.025,0,0,0-.244-2.15A7.286,7.286,0,0,0,26.36,6Zm0,.946h.015a6.322,6.322,0,0,1,6.154,4.677,7.162,7.162,0,0,1,.214,1.906c-.01,2.117-1.182,4.064-2.645,6.088a40.471,40.471,0,0,0-3.731,5.615,40.483,40.483,0,0,0-3.731-5.615c-1.463-2.024-2.635-3.971-2.645-6.088a7.162,7.162,0,0,1,.214-1.906A6.322,6.322,0,0,1,26.345,6.945Zm-.007,3.28a3.029,3.029,0,1,0,3.037,3.037A3.038,3.038,0,0,0,26.338,10.226Zm0,.946a2.084,2.084,0,1,1-2.091,2.083A2.089,2.089,0,0,1,26.338,11.171Z" transform="translate(-19.031 -5.999)" stroke="#000" stroke-width="0.3"/>
    </g>
  </g>
</svg>
