<svg xmlns="http://www.w3.org/2000/svg" width="21.541" height="22" viewBox="0 0 21.541 22">
  <g id="noun-document-3834342" transform="translate(-71.141 -11.196)">
    <path id="Path_4726" data-name="Path 4726" d="M330.712,271.665a5.913,5.913,0,1,1,5.89-5.913A5.927,5.927,0,0,1,330.712,271.665Zm0-10.564a4.664,4.664,0,1,0,4.675,4.652A4.66,4.66,0,0,0,330.712,261.1Z" transform="translate(-243.919 -238.469)" fill="#fff"/>
    <path id="Path_4727" data-name="Path 4727" d="M453.276,336.845h-3.6V333.2h1.238v2.429h2.36Z" transform="translate(-363.687 -308.828)" fill="#fff"/>
    <path id="Path_4728" data-name="Path 4728" d="M95.121,31.546H90.652A3.844,3.844,0,0,1,86.8,27.7V15.046a3.858,3.858,0,0,1,3.85-3.85H100.3a3.858,3.858,0,0,1,3.85,3.85v4.033h-1.237V15.046a2.65,2.65,0,0,0-2.635-2.635H90.652a2.65,2.65,0,0,0-2.635,2.635V27.7a2.65,2.65,0,0,0,2.635,2.635h4.469Z" transform="translate(-15.661 0)" fill="#fff"/>
  </g>
</svg>
