<svg id="noun-calender-2013026" xmlns="http://www.w3.org/2000/svg" width="18" height="18" viewBox="0 0 18 18">
  <path id="Path_4581" data-name="Path 4581" d="M103.7,72.667h-1.8v-2a.6.6,0,1,0-1.2,0v2H92.3v-2a.6.6,0,1,0-1.2,0v2H89.3a1.91,1.91,0,0,0-1.8,2V86a1.91,1.91,0,0,0,1.8,2h14.4a1.91,1.91,0,0,0,1.8-2V74.667A1.91,1.91,0,0,0,103.7,72.667ZM89.3,74h1.8v.667a.6.6,0,1,0,1.2,0V74h8.4v.667a.6.6,0,1,0,1.2,0V74h1.8a.636.636,0,0,1,.6.667V76H88.7V74.667A.636.636,0,0,1,89.3,74Zm14.4,12.667H89.3A.636.636,0,0,1,88.7,86V77.333h15.6V86A.636.636,0,0,1,103.7,86.667Z" transform="translate(-87.5 -70)"/>
</svg>
