<svg xmlns="http://www.w3.org/2000/svg" width="22.637" height="22.1" viewBox="0 0 22.637 22.1">
  <g id="noun-schedule-4457394" transform="translate(0.05 0.05)">
    <path id="Path_4721" data-name="Path 4721" d="M105,84.351a2.683,2.683,0,0,1,2.683-2.683h17.171a2.683,2.683,0,0,1,2.683,2.683V86.5a.537.537,0,0,1-.537.536H105.537A.537.537,0,0,1,105,86.5Zm2.683-1.61a1.61,1.61,0,0,0-1.61,1.61v1.61h20.391v-1.61a1.61,1.61,0,0,0-1.61-1.61Z" transform="translate(-105 -80.058)" fill="#fff" stroke="#000" stroke-width="0.1" fill-rule="evenodd"/>
    <path id="Path_4722" data-name="Path 4722" d="M104.992,175.539a.537.537,0,0,1,.537-.537h21.463a.537.537,0,0,1,.537.537v12.878a2.683,2.683,0,0,1-2.683,2.683H107.675a2.683,2.683,0,0,1-2.683-2.683Zm1.073.536v12.342a1.61,1.61,0,0,0,1.61,1.61h17.171a1.61,1.61,0,0,0,1.61-1.61V176.075Z" transform="translate(-104.992 -169.1)" fill="#fff" stroke="#000" stroke-width="0.1" fill-rule="evenodd"/>
    <path id="Path_4723" data-name="Path 4723" d="M478.33,49.89V46.67H479.4v3.22Z" transform="translate(-461.159 -46.67)" fill="#fff" stroke="#000" stroke-width="0.1" fill-rule="evenodd"/>
    <path id="Path_4724" data-name="Path 4724" d="M198.33,49.89V46.67H199.4v3.22Z" transform="translate(-194.037 -46.67)" fill="#fff" stroke="#000" stroke-width="0.1" fill-rule="evenodd"/>
  </g>
</svg>
