<svg xmlns="http://www.w3.org/2000/svg" width="40.395" height="40.395" viewBox="0 0 40.395 40.395">
  <g id="noun-image-1034954" transform="translate(-32.246)">
    <path id="Path_4389" data-name="Path 4389" d="M218.353,112H186.038a4.039,4.039,0,0,0-4.04,4.04v32.315a4.039,4.039,0,0,0,4.04,4.04h32.315a4.039,4.039,0,0,0,4.04-4.04V116.04a4.039,4.039,0,0,0-4.04-4.04Zm-32.315,2.693h32.315a1.347,1.347,0,0,1,1.347,1.347v21.968l-5.9-5.17h0a2.45,2.45,0,0,0-3.3,0l-8.833,7.742a2.451,2.451,0,0,1-3.3,0l-2.74-2.4a2.45,2.45,0,0,0-3.3,0l-7.641,6.7V116.04a1.347,1.347,0,0,1,1.347-1.347Z" transform="translate(-149.752 -112)" fill="#66d684"/>
    <path id="Path_4390" data-name="Path 4390" d="M415.807,163.045a3.615,3.615,0,1,1-3.615-3.615,3.615,3.615,0,0,1,3.615,3.615" transform="translate(-349.09 -153.728)" fill="#66d684"/>
  </g>
</svg>
