<svg xmlns="http://www.w3.org/2000/svg" width="21.759" height="25.196" viewBox="0 0 21.759 25.196">
  <g id="Group_7973" data-name="Group 7973" transform="translate(-31.619 -435.205)">
    <path id="Path_22846" data-name="Path 22846" d="M131.03,14,120.4,16.333v6.248a16.294,16.294,0,0,0,6.611,13.093l4.019,2.956,4.019-2.956a16.258,16.258,0,0,0,6.611-13.093V16.333Zm8.841,8.581a14.551,14.551,0,0,1-5.885,11.641L131.03,36.4l-2.956-2.178a14.477,14.477,0,0,1-5.885-11.641v-4.8l8.841-1.944,8.841,1.944Z" transform="translate(-88.531 421.461)" fill="red" stroke="#fff" stroke-width="0.5"/>
    <path id="Path_22847" data-name="Path 22847" d="M265.511,134.932v1.374h-.7a.492.492,0,0,0-.493.493v4.718a.492.492,0,0,0,.493.493h6.948a.492.492,0,0,0,.493-.493V136.8a.492.492,0,0,0-.493-.493h-.7v-1.374a2.774,2.774,0,1,0-5.548,0Zm3.37,5.315a.243.243,0,0,1-.233.311h-.726a.243.243,0,0,1-.233-.311l.233-.881a.808.808,0,0,1-.467-.752.83.83,0,1,1,1.193.752Zm.8-5.315v1.374h-2.8v-1.374a1.394,1.394,0,0,1,1.4-1.4,1.41,1.41,0,0,1,1.4,1.4Z" transform="translate(-225.787 308.774)" fill="red"/>
  </g>
</svg>
